<svg width="28" height="28" viewBox="0 0 28 28" fill="none" xmlns="http://www.w3.org/2000/svg">
<path fill-rule="evenodd" clip-rule="evenodd" d="M3 12.6C3 9.23969 3 7.55953 3.65396 6.27606C4.2292 5.14708 5.14708 4.2292 6.27606 3.65396C7.55953 3 9.23969 3 12.6 3H15.4C18.7603 3 20.4405 3 21.7239 3.65396C22.8529 4.2292 23.7708 5.14708 24.346 6.27606C25 7.55953 25 9.23969 25 12.6V15.4C25 18.7603 25 20.4405 24.346 21.7239C23.7708 22.8529 22.8529 23.7708 21.7239 24.346C20.4405 25 18.7603 25 15.4 25H12.6C9.23969 25 7.55953 25 6.27606 24.346C5.14708 23.7708 4.2292 22.8529 3.65396 21.7239C3 20.4405 3 18.7603 3 15.4V12.6ZM8.82208 5.0751C9.72225 5.00156 10.8868 5 12.6 5H15.4C17.1132 5 18.2777 5.00156 19.1779 5.0751C20.0548 5.14674 20.5032 5.27659 20.816 5.43597C21.5686 5.81947 22.1805 6.43139 22.564 7.18404C22.7234 7.49684 22.8533 7.94524 22.9249 8.82208C22.9984 9.72225 23 10.8868 23 12.6V15.4C23 17.1132 22.9984 18.2777 22.9249 19.1779C22.8533 20.0548 22.7234 20.5032 22.564 20.816C22.1805 21.5686 21.5686 22.1805 20.816 22.564C20.5032 22.7234 20.0548 22.8533 19.1779 22.9249C18.2777 22.9984 17.1132 23 15.4 23H12.6C10.8868 23 9.72225 22.9984 8.82208 22.9249C7.94524 22.8533 7.49684 22.7234 7.18404 22.564C6.43139 22.1805 5.81947 21.5686 5.43597 20.816C5.27659 20.5032 5.14674 20.0548 5.0751 19.1779C5.00156 18.2777 5 17.1132 5 15.4V12.6C5 10.8868 5.00156 9.72225 5.0751 8.82208C5.14674 7.94524 5.27659 7.49684 5.43597 7.18404C5.81947 6.43139 6.43139 5.81947 7.18404 5.43597C7.49684 5.27659 7.94524 5.14674 8.82208 5.0751V5.0751Z" fill="#2688EB"/>
<path d="M11.8857 18L12.4254 16.3416H15.0497L15.5895 18H17.2372L14.7301 10.7273H12.7486L10.2379 18H11.8857ZM12.8161 15.1413L13.7109 12.3892H13.7678L14.6626 15.1413H12.8161Z" fill="#2688EB"/>
</svg>
