<svg width="28" height="28" viewBox="0 0 28 28" fill="none" xmlns="http://www.w3.org/2000/svg">
<path fill-rule="evenodd" clip-rule="evenodd" d="M3 12.6C3 9.23969 3 7.55953 3.65396 6.27606C4.2292 5.14708 5.14708 4.2292 6.27606 3.65396C7.55953 3 9.23969 3 12.6 3H15.4C18.7603 3 20.4405 3 21.7239 3.65396C22.8529 4.2292 23.7708 5.14708 24.346 6.27606C25 7.55953 25 9.23969 25 12.6V15.4C25 18.7603 25 20.4405 24.346 21.7239C23.7708 22.8529 22.8529 23.7708 21.7239 24.346C20.4405 25 18.7603 25 15.4 25H12.6C9.23969 25 7.55953 25 6.27606 24.346C5.14708 23.7708 4.2292 22.8529 3.65396 21.7239C3 20.4405 3 18.7603 3 15.4V12.6ZM8.82208 5.0751C9.72225 5.00156 10.8868 5 12.6 5H15.4C17.1132 5 18.2777 5.00156 19.1779 5.0751C20.0548 5.14674 20.5032 5.27659 20.816 5.43597C21.5686 5.81947 22.1805 6.43139 22.564 7.18404C22.7234 7.49684 22.8533 7.94524 22.9249 8.82208C22.9984 9.72225 23 10.8868 23 12.6V15.4C23 17.1132 22.9984 18.2777 22.9249 19.1779C22.8533 20.0548 22.7234 20.5032 22.564 20.816C22.1805 21.5686 21.5686 22.1805 20.816 22.564C20.5032 22.7234 20.0548 22.8533 19.1779 22.9249C18.2777 22.9984 17.1132 23 15.4 23H12.6C10.8868 23 9.72225 22.9984 8.82208 22.9249C7.94524 22.8533 7.49684 22.7234 7.18404 22.564C6.43139 22.1805 5.81947 21.5686 5.43597 20.816C5.27659 20.5032 5.14674 20.0548 5.0751 19.1779C5.00156 18.2777 5 17.1132 5 15.4V12.6C5 10.8868 5.00156 9.72225 5.0751 8.82208C5.14674 7.94524 5.27659 7.49684 5.43597 7.18404C5.81947 6.43139 6.43139 5.81947 7.18404 5.43597C7.49684 5.27659 7.94524 5.14674 8.82208 5.0751Z" fill="#2688EB"/>
<path d="M8.31996 17L8.6978 15.8391H10.5348L10.9126 17H12.0661L10.3111 11.9091H8.92401L7.16655 17H8.31996ZM8.97124 14.9989L9.59766 13.0724H9.63743L10.2638 14.9989H8.97124ZM12.6788 17H13.7228V16.3885H13.7701C13.9167 16.7067 14.2374 17.0621 14.8539 17.0621C15.7239 17.0621 16.4025 16.3736 16.4025 15.0959C16.4025 13.7834 15.6941 13.1321 14.8564 13.1321C14.2175 13.1321 13.9118 13.5124 13.7701 13.8232H13.7377V11.9091H12.6788V17ZM13.7154 15.0909C13.7154 14.4098 14.0037 13.9748 14.5183 13.9748C15.0428 13.9748 15.3212 14.4297 15.3212 15.0909C15.3212 15.7571 15.0378 16.2195 14.5183 16.2195C14.0087 16.2195 13.7154 15.772 13.7154 15.0909ZM18.8343 17.0746C19.8509 17.0746 20.4898 16.478 20.5395 15.6005H19.5402C19.4781 16.0082 19.2096 16.2369 18.8467 16.2369C18.352 16.2369 18.0313 15.8217 18.0313 15.0909C18.0313 14.37 18.3545 13.9574 18.8467 13.9574C19.2345 13.9574 19.483 14.2134 19.5402 14.5938H20.5395C20.4948 13.7113 19.8261 13.1321 18.8293 13.1321C17.6709 13.1321 16.955 13.935 16.955 15.1058C16.955 16.2667 17.6585 17.0746 18.8343 17.0746Z" fill="#2688EB"/>
</svg>
