<svg width="19" height="18" viewBox="0 0 19 18" fill="none" xmlns="http://www.w3.org/2000/svg">
<path d="M10.5 18H2.5C1.39543 18 0.5 17.1046 0.5 16V2C0.5 0.89543 1.39543 0 2.5 0H16.5C17.6046 0 18.5 0.89543 18.5 2V10C18.4996 10.0116 18.4975 10.023 18.494 10.034C18.4911 10.0431 18.4891 10.0525 18.488 10.062C18.4823 10.1502 18.4652 10.2373 18.437 10.321L18.428 10.348C18.4213 10.3706 18.4129 10.3926 18.403 10.414C18.3546 10.5229 18.2868 10.6222 18.203 10.707L11.203 17.707C11.0165 17.8936 10.7638 17.9989 10.5 18ZM2.5 2V16H9.5V10C9.5 9.44772 9.94772 9 10.5 9H16.5V2H2.5ZM11.5 11V14.587L15.086 11H11.5Z" fill="#5E10DD"/>
</svg>
