<svg width="21" height="20" viewBox="0 0 21 20" fill="none" xmlns="http://www.w3.org/2000/svg">
<path d="M0.5 2V16L5.3 12.4C5.64582 12.1396 6.06713 11.9992 6.5 12H14.5C15.6046 12 16.5 11.1046 16.5 10V2C16.5 0.89543 15.6046 0 14.5 0H2.5C1.39543 0 0.5 0.89543 0.5 2ZM2.5 12V2H14.5V10H5.834C5.40107 9.99884 4.97964 10.1393 4.634 10.4L2.5 12Z" fill="#5E10DD"/>
<path d="M20.5 20V7C20.5 5.89543 19.6046 5 18.5 5V16L16.366 14.4C16.0204 14.1393 15.5989 13.9988 15.166 14H5.5C5.5 15.1046 6.39543 16 7.5 16H14.5C14.9329 15.9992 15.3542 16.1396 15.7 16.4L20.5 20Z" fill="#5E10DD"/>
</svg>
