<svg width="17" height="20" viewBox="0 0 17 20" fill="none" xmlns="http://www.w3.org/2000/svg">
<path d="M14.5 20H2.5C1.39543 20 0.5 19.1046 0.5 18V2C0.5 0.89543 1.39543 0 2.5 0H9.5C9.5109 0.000472319 9.52167 0.00249256 9.532 0.006C9.54177 0.00901724 9.55182 0.0110277 9.562 0.012C9.65019 0.0176532 9.73726 0.0347982 9.821 0.063L9.849 0.072C9.87167 0.079682 9.89373 0.0890412 9.915 0.1C10.0239 0.148424 10.1232 0.216185 10.208 0.3L16.208 6.3C16.2918 6.38479 16.3596 6.48406 16.408 6.593C16.418 6.615 16.425 6.638 16.433 6.661L16.442 6.687C16.4699 6.77039 16.4864 6.85718 16.491 6.945C16.4926 6.95418 16.4949 6.96322 16.498 6.972C16.4998 6.98122 16.5004 6.99062 16.5001 7V18C16.5001 19.1046 15.6046 20 14.5 20ZM2.5 2V18H14.5V8H9.5C8.94772 8 8.5 7.55228 8.5 7V2H2.5ZM10.5 3.414V6H13.086L10.5 3.414Z" fill="#5E10DD"/>
</svg>
