<svg width="796" height="137" viewBox="0 0 796 137" fill="none" xmlns="http://www.w3.org/2000/svg">
<path fill-rule="evenodd" clip-rule="evenodd" d="M796 0H358V137H796V0Z" fill="#5E10DD"/>
<path d="M153.988 0V137H125.973V58.2038C125.973 56.3859 126.005 54.4113 126.067 52.28C126.193 50.1487 126.381 47.986 126.631 45.792L90.2495 116.22C89.1214 118.414 87.5859 120.075 85.643 121.203C83.7628 122.332 81.6006 122.896 79.1563 122.896H74.8319C72.3876 122.896 70.1941 122.332 68.2512 121.203C66.371 120.075 64.8668 118.414 63.7387 116.22L27.3569 45.604C27.5449 47.8607 27.7016 50.086 27.8269 52.28C27.9523 54.4113 28.015 56.3859 28.015 58.2038V137H0V0H24.2546C25.6334 0 26.8242 0.0313407 27.8269 0.094022C28.8924 0.156711 29.8325 0.34477 30.6472 0.658199C31.462 0.971628 32.1827 1.47312 32.8095 2.16266C33.4989 2.78952 34.1569 3.69846 34.7837 4.88949L70.0374 74.3768C71.2908 76.7589 72.4816 79.235 73.6098 81.8051C74.8005 84.3752 75.9287 87.008 76.9941 89.7035C78.0596 86.9453 79.1563 84.2498 80.2845 81.617C81.4752 78.9842 82.7287 76.4768 84.0449 74.0947L119.205 4.88949C119.831 3.69846 120.458 2.78952 121.085 2.16266C121.774 1.47312 122.526 0.971628 123.341 0.658199C124.156 0.34477 125.065 0.156711 126.067 0.094022C127.133 0.0313407 128.355 0 129.734 0H153.988Z" fill="white"/>
<path d="M212.455 137H180.492V0H212.455V137Z" fill="white"/>
<path d="M358.461 0V137H341.915C339.471 137 337.403 136.624 335.711 135.872C334.081 135.057 332.452 133.678 330.822 131.734L266.237 50.0233C266.488 52.4681 266.645 54.8501 266.708 57.1695C266.833 59.4262 266.896 61.5575 266.896 63.5635V137H238.881V0H255.614C256.993 0 258.153 0.0626851 259.093 0.188055C260.033 0.313425 260.879 0.564169 261.631 0.940287C262.383 1.25372 263.104 1.72386 263.793 2.35072C264.483 2.97758 265.266 3.82383 266.143 4.88949L331.292 87.1647C330.979 84.5319 330.76 81.9931 330.634 79.5484C330.509 77.0409 330.446 74.6902 330.446 72.4962V0H358.461Z" fill="white"/>
<path d="M417 137H385.037V0H417V137Z" fill="white"/>
<path d="M535.968 42V94.452H525.24V64.284C525.24 63.588 525.252 62.832 525.276 62.016C525.324 61.2 525.396 60.372 525.492 59.532L511.56 86.496C511.128 87.336 510.54 87.972 509.796 88.404C509.076 88.836 508.248 89.052 507.312 89.052H505.656C504.72 89.052 503.88 88.836 503.136 88.404C502.416 87.972 501.84 87.336 501.408 86.496L487.476 59.46C487.548 60.324 487.608 61.176 487.656 62.016C487.704 62.832 487.728 63.588 487.728 64.284V94.452H477V42H486.288C486.816 42 487.272 42.012 487.656 42.036C488.064 42.06 488.424 42.132 488.736 42.252C489.048 42.372 489.324 42.564 489.564 42.828C489.828 43.068 490.08 43.416 490.32 43.872L503.82 70.476C504.3 71.388 504.756 72.336 505.188 73.32C505.644 74.304 506.076 75.312 506.484 76.344C506.892 75.288 507.312 74.256 507.744 73.248C508.2 72.24 508.68 71.28 509.184 70.368L522.648 43.872C522.888 43.416 523.128 43.068 523.368 42.828C523.632 42.564 523.92 42.372 524.232 42.252C524.544 42.132 524.892 42.06 525.276 42.036C525.684 42.012 526.152 42 526.68 42H535.968Z" fill="white"/>
<path d="M573.837 74.4L568.977 60.036C568.617 59.124 568.233 58.056 567.825 56.832C567.417 55.584 567.009 54.24 566.601 52.8C566.241 54.264 565.857 55.62 565.449 56.868C565.041 58.116 564.657 59.196 564.297 60.108L559.473 74.4H573.837ZM593.169 94.452H583.737C582.681 94.452 581.829 94.212 581.181 93.732C580.533 93.228 580.041 92.592 579.705 91.824L576.609 82.68H556.665L553.569 91.824C553.305 92.496 552.825 93.108 552.129 93.66C551.457 94.188 550.617 94.452 549.609 94.452H540.105L560.409 42H572.865L593.169 94.452Z" fill="white"/>
<path d="M609.473 63.24H611.417C613.217 63.24 614.513 62.676 615.305 61.548L627.113 44.412C627.809 43.5 628.553 42.876 629.345 42.54C630.161 42.18 631.169 42 632.369 42H642.953L627.401 63.204C626.297 64.668 625.109 65.724 623.837 66.372C624.749 66.708 625.577 67.176 626.321 67.776C627.065 68.376 627.761 69.156 628.409 70.116L644.249 94.452H633.377C632.681 94.452 632.081 94.404 631.577 94.308C631.097 94.212 630.677 94.068 630.317 93.876C629.957 93.684 629.645 93.456 629.381 93.192C629.117 92.904 628.865 92.58 628.625 92.22L616.745 73.968C616.313 73.296 615.761 72.828 615.089 72.564C614.441 72.276 613.553 72.132 612.425 72.132H609.473V94.452H597.305V42H609.473V63.24Z" fill="white"/>
<path d="M660.381 51.36V63.6H676.869V72.6H660.381V85.092H681.909V94.452H648.141V42H681.909V51.36H660.381Z" fill="white"/>
<path d="M706.478 66.66C708.134 66.66 709.538 66.456 710.69 66.048C711.866 65.616 712.826 65.028 713.57 64.284C714.314 63.54 714.854 62.676 715.19 61.692C715.526 60.684 715.694 59.604 715.694 58.452C715.694 56.148 714.938 54.348 713.426 53.052C711.938 51.756 709.622 51.108 706.478 51.108H701.582V66.66H706.478ZM732.326 94.452H721.31C719.27 94.452 717.806 93.684 716.918 92.148L708.206 76.92C707.798 76.272 707.342 75.804 706.838 75.516C706.334 75.204 705.614 75.048 704.678 75.048H701.582V94.452H689.414V42H706.478C710.27 42 713.498 42.396 716.162 43.188C718.85 43.956 721.034 45.036 722.714 46.428C724.418 47.82 725.654 49.464 726.422 51.36C727.19 53.256 727.574 55.32 727.574 57.552C727.574 59.256 727.346 60.864 726.89 62.376C726.434 63.888 725.762 65.292 724.874 66.588C723.986 67.86 722.882 69 721.562 70.008C720.266 71.016 718.766 71.844 717.062 72.492C717.854 72.9 718.598 73.416 719.294 74.04C719.99 74.64 720.614 75.36 721.166 76.2L732.326 94.452Z" fill="white"/>
</svg>
