<svg width="28" height="28" viewBox="0 0 28 28" fill="none" xmlns="http://www.w3.org/2000/svg">
<path fill-rule="evenodd" clip-rule="evenodd" d="M8.04016 3H7.95984C7.29399 2.99999 6.73444 2.99997 6.27657 3.03738C5.79785 3.0765 5.34289 3.16144 4.91103 3.38148C4.25247 3.71704 3.71704 4.25247 3.38148 4.91103C3.16144 5.34289 3.0765 5.79785 3.03738 6.27657C2.99997 6.73444 2.99999 7.29395 3 7.95981V8.04016C2.99999 8.70602 2.99997 9.26556 3.03738 9.72343C3.0765 10.2021 3.16144 10.6571 3.38148 11.089C3.71704 11.7475 4.25247 12.283 4.91103 12.6185C5.34289 12.8386 5.79785 12.9235 6.27657 12.9626C6.73445 13 7.29398 13 7.95987 13H8.04014C8.70602 13 21.2656 13 21.7234 12.9626C22.2021 12.9235 22.6571 12.8386 23.089 12.6185C23.7475 12.283 24.283 11.7475 24.6185 11.089C24.8386 10.6571 24.9235 10.2021 24.9626 9.72343C25 9.26556 25 8.70604 25 8.04017V7.95987C25 7.294 25 6.73445 24.9626 6.27657C24.9235 5.79785 24.8386 5.34289 24.6185 4.91103C24.283 4.25247 23.7475 3.71704 23.089 3.38148C22.6571 3.16144 22.2021 3.0765 21.7234 3.03738C21.2656 2.99997 8.70603 2.99999 8.04016 3V3ZM5.81902 5.16349C5.92194 5.11105 6.0844 5.05975 6.43944 5.03074C6.80615 5.00078 7.28343 5 8 5C8.71657 5 21.1938 5.00078 21.5606 5.03074C21.9156 5.05975 22.0781 5.11105 22.181 5.16349C22.4632 5.3073 22.6927 5.53677 22.8365 5.81902C22.889 5.92194 22.9403 6.0844 22.9693 6.43944C22.9992 6.80615 23 7.28343 23 8C23 8.71657 22.9992 9.19385 22.9693 9.56056C22.9403 9.9156 22.889 10.0781 22.8365 10.181C22.6927 10.4632 22.4632 10.6927 22.181 10.8365C22.0781 10.889 21.9156 10.9403 21.5606 10.9693C21.1938 10.9992 8.71657 11 8 11C7.28343 11 6.80615 10.9992 6.43944 10.9693C6.0844 10.9403 5.92194 10.889 5.81902 10.8365C5.53677 10.6927 5.3073 10.4632 5.16349 10.181C5.11105 10.0781 5.05975 9.9156 5.03074 9.56056C5.00078 9.19385 5 8.71657 5 8C5 7.28343 5.00078 6.80615 5.03074 6.43944C5.05975 6.0844 5.11105 5.92194 5.16349 5.81902C5.3073 5.53677 5.53677 5.3073 5.81902 5.16349Z" fill="#2688EB"/>
<path fill-rule="evenodd" clip-rule="evenodd" d="M21.7234 15.0374C21.2656 15 8.70603 15 8.04016 15H7.95984C7.29397 15 6.73445 15 6.27657 15.0374C5.79785 15.0765 5.34289 15.1614 4.91103 15.3815C4.25247 15.717 3.71704 16.2525 3.38148 16.911C3.16144 17.3429 3.0765 17.7979 3.03738 18.2766C2.99997 18.7344 2.99999 19.294 3 19.9598V20.0402C2.99999 20.706 2.99997 21.2656 3.03738 21.7234C3.0765 22.2021 3.16144 22.6571 3.38148 23.089C3.71704 23.7475 4.25247 24.283 4.91103 24.6185C5.34289 24.8386 5.79785 24.9235 6.27657 24.9626C6.73445 25 7.29397 25 7.95984 25H8.04014C8.70602 25 21.2656 25 21.7234 24.9626C22.2021 24.9235 22.6571 24.8386 23.089 24.6185C23.7475 24.283 24.283 23.7475 24.6185 23.089C24.8386 22.6571 24.9235 22.2021 24.9626 21.7234C25 21.2656 25 20.706 25 20.0402V19.9599C25 19.294 25 18.7344 24.9626 18.2766C24.9235 17.7979 24.8386 17.3429 24.6185 16.911C24.283 16.2525 23.7475 15.717 23.089 15.3815C22.6571 15.1614 22.2021 15.0765 21.7234 15.0374V15.0374ZM5.81902 17.1635C5.92194 17.1111 6.0844 17.0597 6.43944 17.0307C6.80615 17.0008 7.28343 17 8 17C8.71657 17 21.1938 17.0008 21.5606 17.0307C21.9156 17.0597 22.0781 17.1111 22.181 17.1635C22.4632 17.3073 22.6927 17.5368 22.8365 17.819C22.889 17.9219 22.9403 18.0844 22.9693 18.4394C22.9992 18.8062 23 19.2834 23 20C23 20.7166 22.9992 21.1939 22.9693 21.5606C22.9403 21.9156 22.889 22.0781 22.8365 22.181C22.6927 22.4632 22.4632 22.6927 22.181 22.8365C22.0781 22.889 21.9156 22.9403 21.5606 22.9693C21.1938 22.9992 8.71657 23 8 23C7.28343 23 6.80615 22.9992 6.43944 22.9693C6.0844 22.9403 5.92194 22.889 5.81902 22.8365C5.53677 22.6927 5.3073 22.4632 5.16349 22.181C5.11105 22.0781 5.05975 21.9156 5.03074 21.5606C5.00078 21.1939 5 20.7166 5 20C5 19.2834 5.00078 18.8062 5.03074 18.4394C5.05975 18.0844 5.11105 17.9219 5.16349 17.819C5.3073 17.5368 5.53677 17.3073 5.81902 17.1635V17.1635Z" fill="#2688EB"/>
</svg>
