<svg width="312" height="38" viewBox="0 0 312 38" fill="none" xmlns="http://www.w3.org/2000/svg">
<path fill-rule="evenodd" clip-rule="evenodd" d="M220.788 0H99.2993V38H220.788V0Z" fill="#5E10DD"/>
<path d="M42.7121 0V38H34.9415V16.1441C34.9415 15.6399 34.9502 15.0922 34.9676 14.501C35.0023 13.9099 35.0545 13.31 35.124 12.7014L25.0327 32.2361C24.7198 32.8447 24.2939 33.3054 23.755 33.6184C23.2335 33.9314 22.6337 34.0879 21.9558 34.0879H20.7563C20.0783 34.0879 19.4699 33.9314 18.931 33.6184C18.4095 33.3054 17.9923 32.8447 17.6794 32.2361L7.58804 12.6493C7.64019 13.2752 7.68365 13.8925 7.71842 14.501C7.75319 15.0922 7.77057 15.6399 7.77057 16.1441V38H0V0H6.72754C7.10998 0 7.44028 0.00869303 7.71842 0.0260791C8.01394 0.0434672 8.2747 0.0956296 8.50069 0.182566C8.72668 0.269503 8.92659 0.408602 9.10043 0.599863C9.29166 0.773736 9.47418 1.02585 9.64802 1.35621L19.4264 20.6301C19.7741 21.2908 20.1044 21.9776 20.4173 22.6905C20.7476 23.4033 21.0605 24.1336 21.356 24.8813C21.6516 24.1162 21.9558 23.3686 22.2687 22.6383C22.599 21.908 22.9466 21.2125 23.3117 20.5518L33.064 1.35621C33.2379 1.02585 33.4117 0.773736 33.5855 0.599863C33.7768 0.408602 33.9854 0.269503 34.2114 0.182566C34.4374 0.0956296 34.6894 0.0434672 34.9676 0.0260791C35.2631 0.00869303 35.6021 0 35.9845 0H42.7121Z" fill="white"/>
<path d="M58.9291 38H50.0634V0H58.9291V38Z" fill="white"/>
<path d="M99.4272 0V38H94.8379C94.1599 38 93.5862 37.8957 93.1169 37.687C92.6649 37.461 92.2129 37.0785 91.7609 36.5395L73.8469 13.8751C73.9164 14.5532 73.9599 15.2139 73.9773 15.8572C74.012 16.4832 74.0294 17.0744 74.0294 17.6307V38H66.2589V0H70.9003C71.2828 0 71.6044 0.0173871 71.8651 0.0521613C72.1259 0.0869355 72.3606 0.156485 72.5692 0.26081C72.7778 0.347746 72.9777 0.478151 73.1689 0.652024C73.3601 0.825897 73.5774 1.06063 73.8208 1.35621L91.8913 24.1771C91.8044 23.4468 91.7435 22.7426 91.7088 22.0645C91.674 21.369 91.6566 20.717 91.6566 20.1084V0H99.4272Z" fill="white"/>
<path d="M115.664 38H106.798V0H115.664V38Z" fill="white"/>
<path d="M148.663 11.6496V26.1984H145.687V17.8306C145.687 17.6376 145.69 17.4279 145.697 17.2015C145.71 16.9752 145.73 16.7455 145.757 16.5125L141.893 23.9916C141.773 24.2246 141.61 24.401 141.403 24.5208C141.204 24.6407 140.974 24.7006 140.714 24.7006H140.255C139.995 24.7006 139.762 24.6407 139.556 24.5208C139.356 24.401 139.196 24.2246 139.077 23.9916L135.212 16.4926C135.232 16.7322 135.249 16.9685 135.262 17.2015C135.276 17.4279 135.282 17.6376 135.282 17.8306V26.1984H132.307V11.6496H134.883C135.029 11.6496 135.156 11.653 135.262 11.6596C135.375 11.6663 135.475 11.6863 135.562 11.7195C135.648 11.7528 135.725 11.8061 135.791 11.8793C135.865 11.9459 135.935 12.0424 136.001 12.1689L139.746 19.5481C139.879 19.8011 140.005 20.064 140.125 20.3369C140.252 20.6099 140.371 20.8895 140.485 21.1757C140.598 20.8828 140.714 20.5966 140.834 20.317C140.961 20.0374 141.094 19.7711 141.233 19.5181L144.968 12.1689C145.035 12.0424 145.101 11.9459 145.168 11.8793C145.241 11.8061 145.321 11.7528 145.407 11.7195C145.494 11.6863 145.59 11.6663 145.697 11.6596C145.81 11.653 145.94 11.6496 146.086 11.6496H148.663Z" fill="white"/>
<path d="M159.167 20.6365L157.818 16.6523C157.719 16.3994 157.612 16.1031 157.499 15.7636C157.386 15.4175 157.273 15.0447 157.159 14.6453C157.06 15.0513 156.953 15.4275 156.84 15.7736C156.727 16.1198 156.62 16.4193 156.52 16.6723L155.182 20.6365H159.167ZM164.529 26.1984H161.912C161.62 26.1984 161.383 26.1318 161.204 25.9987C161.024 25.8589 160.887 25.6825 160.794 25.4694L159.935 22.9331H154.403L153.545 25.4694C153.471 25.6558 153.338 25.8256 153.145 25.9787C152.959 26.1251 152.726 26.1984 152.446 26.1984H149.81L155.442 11.6496H158.897L164.529 26.1984Z" fill="white"/>
<path d="M169.051 17.541H169.59C170.089 17.541 170.449 17.3846 170.668 17.0717L173.944 12.3187C174.137 12.0657 174.343 11.8926 174.563 11.7994C174.789 11.6996 175.069 11.6496 175.402 11.6496H178.337L174.024 17.531C173.717 17.9371 173.388 18.23 173.035 18.4098C173.288 18.503 173.518 18.6328 173.724 18.7992C173.93 18.9656 174.123 19.182 174.303 19.4482L178.697 26.1984H175.681C175.488 26.1984 175.322 26.1851 175.182 26.1584C175.049 26.1318 174.932 26.0919 174.832 26.0386C174.732 25.9854 174.646 25.9221 174.573 25.8489C174.5 25.769 174.43 25.6791 174.363 25.5793L171.068 20.5167C170.948 20.3303 170.795 20.2005 170.609 20.1272C170.429 20.0474 170.182 20.0074 169.87 20.0074H169.051V26.1984H165.676V11.6496H169.051V17.541Z" fill="white"/>
<path d="M183.171 14.2458V17.6409H187.745V20.1372H183.171V23.6022H189.143V26.1984H179.776V11.6496H189.143V14.2458H183.171Z" fill="white"/>
<path d="M195.957 18.4896C196.417 18.4896 196.806 18.4331 197.126 18.3199C197.452 18.2001 197.718 18.037 197.925 17.8306C198.131 17.6242 198.281 17.3846 198.374 17.1117C198.467 16.8321 198.514 16.5325 198.514 16.213C198.514 15.5739 198.304 15.0746 197.885 14.7152C197.472 14.3557 196.829 14.1759 195.957 14.1759H194.599V18.4896H195.957ZM203.127 26.1984H200.071C199.506 26.1984 199.099 25.9854 198.853 25.5593L196.437 21.3355C196.324 21.1557 196.197 21.0259 196.057 20.9461C195.917 20.8595 195.718 20.8162 195.458 20.8162H194.599V26.1984H191.224V11.6496H195.957C197.009 11.6496 197.905 11.7595 198.643 11.9792C199.389 12.1922 199.995 12.4917 200.461 12.8778C200.933 13.2639 201.276 13.7199 201.489 14.2458C201.702 14.7717 201.809 15.3442 201.809 15.9633C201.809 16.436 201.746 16.882 201.619 17.3014C201.493 17.7208 201.306 18.1102 201.06 18.4697C200.814 18.8225 200.507 19.1387 200.141 19.4183C199.782 19.6979 199.366 19.9275 198.893 20.1073C199.113 20.2204 199.319 20.3636 199.512 20.5367C199.705 20.7031 199.878 20.9028 200.031 21.1358L203.127 26.1984Z" fill="white"/>
<path d="M247.278 14.6095C247.187 14.7599 247.092 14.8711 246.994 14.9431C246.902 15.0085 246.781 15.0412 246.631 15.0412C246.487 15.0412 246.33 14.9921 246.16 14.894C245.996 14.7894 245.803 14.6782 245.581 14.5604C245.359 14.4427 245.104 14.3348 244.816 14.2367C244.528 14.132 244.191 14.0797 243.805 14.0797C243.125 14.0797 242.615 14.2334 242.275 14.5408C241.935 14.8417 241.765 15.2374 241.765 15.728C241.765 16.0419 241.856 16.3036 242.039 16.5129C242.229 16.7156 242.474 16.8922 242.775 17.0427C243.082 17.1931 243.429 17.3272 243.815 17.4449C244.201 17.5627 244.597 17.6935 245.002 17.8374C245.408 17.9747 245.803 18.1382 246.189 18.3279C246.575 18.5176 246.919 18.7564 247.22 19.0441C247.527 19.3319 247.772 19.6851 247.955 20.1038C248.145 20.5158 248.24 21.0195 248.24 21.6147C248.24 22.2622 248.125 22.8705 247.896 23.4396C247.674 24.0021 247.35 24.4959 246.925 24.9211C246.5 25.3397 245.974 25.67 245.346 25.912C244.724 26.154 244.018 26.275 243.226 26.275C242.775 26.275 242.324 26.2292 241.872 26.1376C241.428 26.0461 240.996 25.9185 240.577 25.755C240.165 25.5915 239.776 25.3953 239.41 25.1663C239.044 24.9374 238.723 24.6823 238.448 24.4011L239.312 23.0079C239.384 22.9032 239.478 22.8182 239.596 22.7528C239.714 22.6808 239.838 22.6449 239.969 22.6449C240.146 22.6449 240.332 22.7103 240.528 22.8411C240.725 22.9719 240.95 23.1158 241.205 23.2728C241.46 23.4298 241.755 23.5737 242.088 23.7045C242.428 23.8353 242.834 23.9007 243.305 23.9007C243.992 23.9007 244.521 23.7437 244.894 23.4298C245.274 23.1158 245.463 22.6481 245.463 22.0268C245.463 21.667 245.368 21.3759 245.179 21.1536C244.996 20.9312 244.754 20.7448 244.453 20.5943C244.152 20.4439 243.809 20.3163 243.423 20.2117C243.037 20.1005 242.641 19.9795 242.235 19.8487C241.83 19.7179 241.434 19.5609 241.048 19.3777C240.662 19.1946 240.319 18.9526 240.018 18.6517C239.717 18.3508 239.472 17.978 239.282 17.5332C239.099 17.0885 239.008 16.5358 239.008 15.8751C239.008 15.3453 239.112 14.8319 239.322 14.3348C239.531 13.8377 239.838 13.3962 240.244 13.0103C240.649 12.6244 241.146 12.3137 241.735 12.0782C242.33 11.8427 243.011 11.725 243.776 11.725C244.633 11.725 245.424 11.8591 246.15 12.1273C246.883 12.3889 247.501 12.7552 248.004 13.2261L247.278 14.6095Z" fill="white"/>
<path d="M260.451 14.2563H256.291V26.118H253.337V14.2563H249.177V11.882H260.451V14.2563Z" fill="white"/>
<path d="M268.045 23.7633C268.522 23.7633 268.951 23.6848 269.33 23.5279C269.709 23.3643 270.03 23.1354 270.291 22.8411C270.553 22.5467 270.753 22.1903 270.89 21.7717C271.027 21.3531 271.096 20.8821 271.096 20.3588V11.882H274.039V20.3588C274.039 21.2222 273.899 22.0169 273.617 22.743C273.343 23.4625 272.947 24.0838 272.43 24.6071C271.914 25.1304 271.286 25.5392 270.547 25.8335C269.807 26.1278 268.973 26.275 268.045 26.275C267.116 26.275 266.279 26.1278 265.533 25.8335C264.794 25.5392 264.166 25.1304 263.649 24.6071C263.133 24.0838 262.734 23.4625 262.452 22.743C262.178 22.0169 262.04 21.2222 262.04 20.3588V11.882H264.984V20.3588C264.984 20.8821 265.052 21.3531 265.19 21.7717C265.327 22.1903 265.526 22.5467 265.788 22.8411C266.05 23.1354 266.37 23.3643 266.75 23.5279C267.129 23.6848 267.561 23.7633 268.045 23.7633Z" fill="white"/>
<path d="M289.602 18.9951C289.602 20.0351 289.426 20.9933 289.072 21.8698C288.726 22.7397 288.232 23.4886 287.591 24.1165C286.956 24.7445 286.191 25.235 285.295 25.5882C284.399 25.9414 283.405 26.118 282.312 26.118H276.838V11.882H282.312C283.405 11.882 284.399 12.0586 285.295 12.4118C286.191 12.765 286.956 13.2588 287.591 13.8933C288.232 14.5212 288.726 15.2701 289.072 16.14C289.426 17.01 289.602 17.9616 289.602 18.9951ZM286.58 18.9951C286.58 18.2494 286.482 17.579 286.286 16.9838C286.09 16.3886 285.809 15.8849 285.442 15.4729C285.076 15.0608 284.628 14.7436 284.098 14.5212C283.575 14.2988 282.98 14.1876 282.312 14.1876H279.801V23.8124H282.312C282.98 23.8124 283.575 23.7045 284.098 23.4886C284.628 23.2662 285.076 22.949 285.442 22.5369C285.809 22.1183 286.09 21.6114 286.286 21.0162C286.482 20.421 286.58 19.7473 286.58 18.9951Z" fill="white"/>
<path d="M294.728 26.118H291.765V11.882H294.728V26.118Z" fill="white"/>
<path d="M311.461 18.9951C311.461 20.0351 311.284 20.9998 310.931 21.8894C310.585 22.7789 310.091 23.5475 309.45 24.195C308.815 24.8426 308.05 25.3527 307.154 25.7256C306.258 26.0919 305.264 26.275 304.171 26.275C303.079 26.275 302.085 26.0919 301.189 25.7256C300.293 25.3527 299.524 24.8426 298.883 24.195C298.242 23.5475 297.745 22.7789 297.392 21.8894C297.045 20.9998 296.872 20.0351 296.872 18.9951C296.872 17.9551 297.045 16.9936 297.392 16.1106C297.745 15.2211 298.242 14.4525 298.883 13.805C299.524 13.1574 300.293 12.6505 301.189 12.2842C302.085 11.9114 303.079 11.725 304.171 11.725C305.264 11.725 306.258 11.9114 307.154 12.2842C308.05 12.6505 308.815 13.1607 309.45 13.8148C310.091 14.4623 310.585 15.2309 310.931 16.1204C311.284 17.0034 311.461 17.9616 311.461 18.9951ZM308.449 18.9951C308.449 18.2494 308.351 17.5823 308.155 16.9936C307.958 16.3984 307.674 15.8948 307.301 15.4827C306.935 15.0641 306.487 14.7468 305.957 14.531C305.434 14.3086 304.839 14.1974 304.171 14.1974C303.504 14.1974 302.906 14.3086 302.376 14.531C301.846 14.7468 301.395 15.0641 301.022 15.4827C300.656 15.8948 300.374 16.3984 300.178 16.9936C299.982 17.5823 299.884 18.2494 299.884 18.9951C299.884 19.7473 299.982 20.421 300.178 21.0162C300.374 21.6049 300.656 22.1052 301.022 22.5173C301.395 22.9294 301.846 23.2466 302.376 23.469C302.906 23.6848 303.504 23.7928 304.171 23.7928C304.839 23.7928 305.434 23.6848 305.957 23.469C306.487 23.2466 306.935 22.9294 307.301 22.5173C307.674 22.1052 307.958 21.6049 308.155 21.0162C308.351 20.421 308.449 19.7473 308.449 18.9951Z" fill="white"/>
</svg>
